<?xml version="1.0" encoding="UTF-8" standalone="no"?>

<svg
   width="800px"
   height="800px"
   viewBox="0 0 32 32"
   fill="none"
   version="1.1"
   id="svg14"
   sodipodi:docname="icon.svg"
   inkscape:version="1.2.2 (732a01da63, 2022-12-09)"
   xmlns:inkscape="http://www.inkscape.org/namespaces/inkscape"
   xmlns:sodipodi="http://sodipodi.sourceforge.net/DTD/sodipodi-0.dtd"
   xmlns="http://www.w3.org/2000/svg"
   xmlns:svg="http://www.w3.org/2000/svg">
  <defs
     id="defs18" />
  <sodipodi:namedview
     id="namedview16"
     pagecolor="#ffffff"
     bordercolor="#000000"
     borderopacity="0.25"
     inkscape:showpageshadow="2"
     inkscape:pageopacity="0.0"
     inkscape:pagecheckerboard="0"
     inkscape:deskcolor="#d1d1d1"
     showgrid="false"
     inkscape:zoom="0.71948115"
     inkscape:cx="98.682224"
     inkscape:cy="451.01946"
     inkscape:window-width="1920"
     inkscape:window-height="1001"
     inkscape:window-x="-9"
     inkscape:window-y="-9"
     inkscape:window-maximized="1"
     inkscape:current-layer="svg14" />
  <g
     id="g6378"
     transform="translate(-2,-1.428571)">
    <path
       d="M 30.571428,6 H 5.4285714 C 3.5350286,6 2,7.5350286 2,9.4285714 V 25.428572 c 0,1.8936 1.5350286,3.42857 3.4285714,3.42857 H 30.571428 c 1.8936,0 3.428572,-1.53497 3.428572,-3.42857 V 9.4285714 C 34,7.5350286 32.465028,6 30.571428,6 Z"
       fill="#388E3C"
       id="path2"
       style="fill:#444be4;fill-opacity:1;stroke-width:1.14286" />
    <path
       d="M 18,6 V 28.857142 H 5.4285714 c -0.9093142,0 -1.7813828,-0.361256 -2.4243656,-1.004228 C 2.3612228,27.209942 2,26.337828 2,25.428572 V 9.4285714 C 2,8.5192572 2.3612228,7.6471886 3.0042058,7.0042058 3.6471886,6.3612228 4.5192572,6 5.4285714,6 Z"
       fill="#66BB6A"
       id="path4"
       style="fill:#dc44e4;fill-opacity:1;stroke-width:1.14286" />
    <path
       d="m 13.428572,6 v 16 c 0,0.303086 -0.120458,0.593828 -0.334744,0.808114 -0.214286,0.214286 -0.505028,0.334744 -0.808114,0.334744 -0.303086,0 -0.593828,-0.120458 -0.808114,-0.334744 C 11.263314,22.593828 11.142858,22.303086 11.142858,22 V 6 Z"
       fill="#F5F5F5"
       id="path6"
       style="fill:#8c44e4;fill-opacity:1;stroke-width:1.14286" />
    <path
       d="m 28.285714,14 h -5.714286 c -0.303086,0 -0.593828,-0.120458 -0.808114,-0.334742 -0.214286,-0.214286 -0.334742,-0.50503 -0.334742,-0.808116 0,-0.303084 0.120456,-0.593828 0.334742,-0.808114 0.214286,-0.214286 0.505028,-0.334742 0.808114,-0.334742 h 5.714286 c 0.303086,0 0.593828,0.120456 0.808114,0.334742 0.214286,0.214286 0.334744,0.50503 0.334744,0.808114 0,0.303086 -0.120458,0.59383 -0.334744,0.808116 C 28.879542,13.879542 28.5888,14 28.285714,14 Z"
       fill="#E0E0E0"
       id="path8"
       style="fill:#44e4dc;fill-opacity:1;stroke-width:1.14286" />
    <path
       d="m 28.285714,18.571428 h -3.428572 c -0.303084,0 -0.593828,-0.120456 -0.808114,-0.334742 -0.214286,-0.214286 -0.334742,-0.505028 -0.334742,-0.808114 0,-0.303086 0.120456,-0.59383 0.334742,-0.808114 0.214286,-0.214286 0.50503,-0.334744 0.808114,-0.334744 h 3.428572 c 0.303086,0 0.593828,0.120458 0.808114,0.334744 0.214286,0.214284 0.334744,0.505028 0.334744,0.808114 0,0.303086 -0.120458,0.593828 -0.334744,0.808114 -0.214286,0.214286 -0.505028,0.334742 -0.808114,0.334742 z"
       fill="#E0E0E0"
       id="path10"
       style="fill:#449ce4;fill-opacity:1;stroke-width:1.14286" />
    <path
       d="m 28.285714,23.142858 h -5.714286 c -0.303086,0 -0.593828,-0.120458 -0.808114,-0.334744 C 21.549028,22.593828 21.428572,22.303086 21.428572,22 c 0,-0.303086 0.120456,-0.593828 0.334742,-0.808114 0.214286,-0.214286 0.505028,-0.334744 0.808114,-0.334744 h 5.714286 c 0.303086,0 0.593828,0.120458 0.808114,0.334744 0.214286,0.214286 0.334744,0.505028 0.334744,0.808114 0,0.303086 -0.120458,0.593828 -0.334744,0.808114 -0.214286,0.214286 -0.505028,0.334744 -0.808114,0.334744 z"
       fill="#E0E0E0"
       id="path12"
       style="fill:#44e4dc;fill-opacity:1;stroke-width:1.14286" />
  </g>
</svg>
