<?xml version="1.0" encoding="UTF-8" standalone="no"?>
<svg
   viewBox="0 0 600 600"
   version="1.1"
   id="svg7560"
   sodipodi:docname="libro.svg"
   width="600"
   height="600"
   inkscape:version="1.2.2 (732a01da63, 2022-12-09)"
   xmlns:inkscape="http://www.inkscape.org/namespaces/inkscape"
   xmlns:sodipodi="http://sodipodi.sourceforge.net/DTD/sodipodi-0.dtd"
   xmlns:xlink="http://www.w3.org/1999/xlink"
   xmlns="http://www.w3.org/2000/svg"
   xmlns:svg="http://www.w3.org/2000/svg">
  <defs
     id="defs7564">
    <linearGradient
       inkscape:collect="always"
       id="linearGradient8443">
      <stop
         style="stop-color:#014b55;stop-opacity:1;"
         offset="0"
         id="stop9311" />
      <stop
         style="stop-color:#04989f;stop-opacity:1;"
         offset="0.49676028"
         id="stop8441" />
    </linearGradient>
    <linearGradient
       inkscape:collect="always"
       xlink:href="#linearGradient8443"
       id="linearGradient8445"
       x1="-56.609337"
       y1="309.46439"
       x2="474.26044"
       y2="319.52826"
       gradientUnits="userSpaceOnUse"
       gradientTransform="translate(76,44)" />
  </defs>
  <sodipodi:namedview
     id="namedview7562"
     pagecolor="#ffffff"
     bordercolor="#000000"
     borderopacity="0.25"
     inkscape:showpageshadow="2"
     inkscape:pageopacity="0.0"
     inkscape:pagecheckerboard="0"
     inkscape:deskcolor="#d1d1d1"
     showgrid="false"
     inkscape:zoom="0.79492188"
     inkscape:cx="123.91155"
     inkscape:cy="287.44963"
     inkscape:window-width="1920"
     inkscape:window-height="1001"
     inkscape:window-x="-9"
     inkscape:window-y="-9"
     inkscape:window-maximized="1"
     inkscape:current-layer="svg7560" />
  <path
     id="rect8436"
     style="fill:url(#linearGradient8445);fill-opacity:1;stroke-width:28.9629;stroke-linecap:round;paint-order:stroke markers fill"
     d="M 18.269531,0 C 8.147837,0 0,8.897884 0,19.949219 V 580.05078 C 0,591.10212 8.147837,600 18.269531,600 H 581.73047 C 591.85216,600 600,591.10212 600,580.05078 V 19.949219 C 600,8.897884 591.85216,0 581.73047,0 Z M 172,44 h 288 32 c 17.69998,0 32,14.300018 32,32 v 320 c 0,17.69998 -14.30002,32 -32,32 v 64 c 17.69998,0 32,14.30002 32,32 0,17.69998 -14.30002,32 -32,32 H 460 172 C 119.00005,556 76,512.99995 76,460 V 140 c 0,-52.999947 43.00005,-96 96,-96 z m 48,128 c -8.79999,0 -16,7.20001 -16,16 0,8.79999 7.20001,16 16,16 h 192 c 8.79999,0 16,-7.20001 16,-16 0,-8.79999 -7.20001,-16 -16,-16 z m 0,64 c -8.79999,0 -16,7.20001 -16,16 0,8.79999 7.20001,16 16,16 h 192 c 8.79999,0 16,-7.20001 16,-16 0,-8.79999 -7.20001,-16 -16,-16 z m -48,192 c -17.69998,0 -32,14.30002 -32,32 0,17.69998 14.30002,32 32,32 h 256 v -64 z" />
</svg>
